<?xml version="1.0" encoding="UTF-8" standalone="no"?>
<!DOCTYPE svg PUBLIC "-//W3C//DTD SVG 1.1//EN" "http://www.w3.org/Graphics/SVG/1.1/DTD/svg11.dtd">
<svg width="100%" height="100%" viewBox="0 0 819 728" version="1.1" xmlns="http://www.w3.org/2000/svg" xmlns:xlink="http://www.w3.org/1999/xlink" xml:space="preserve" xmlns:serif="http://www.serif.com/" style="fill-rule:evenodd;clip-rule:evenodd;stroke-linejoin:round;stroke-miterlimit:2;">
    <g transform="matrix(1,0,0,1,-39.1444,-70.5352)">
        <g transform="matrix(1.12175,0,0,1.12175,-85.2494,21.4379)">
            <path d="M398.638,320.259C398.638,320.259 391.916,297.128 349.095,358.827C324.429,394.367 316.696,412.588 300.82,444.198C274.562,496.48 260.638,523.954 230.938,583.03C214.981,614.769 208.415,629.249 190.71,660.076C183.477,672.67 179.559,680.067 173.714,685.94C167.011,692.675 157.901,694.312 150.877,691.133C147.229,689.482 141.789,684.572 143.076,672.362C143.778,665.703 146.426,656.46 149.194,650.074C156.173,633.973 172.734,596.451 181.926,574.61C217.351,490.435 238.122,441.44 261.795,374.338C261.813,374.288 274.342,339.599 284.143,303.425C287.334,291.646 295.985,259.869 310.176,200.576C311.696,194.221 317.226,174.318 313.989,157.173C312.12,147.274 306.587,138.13 299.182,134.135C295.315,132.05 289.261,127.868 279.51,127.901C275.714,127.913 272.357,128.26 267.214,129.88C253.081,134.329 231.623,149.608 207.814,184.084C196.789,200.047 168.16,242.99 143.974,324.894C143.005,328.178 142.903,328.56 142.893,328.584C142.05,330.551 141.573,332.72 140.364,334.486C139.19,336.199 137.627,337.685 135.886,338.815C134.14,339.948 132.141,340.772 130.094,341.152C130.077,341.155 123.618,341.086 123.611,341.083C121.656,340.231 119.501,339.738 117.748,338.525C116.042,337.344 114.562,335.778 113.432,334.037C112.299,332.292 111.471,330.299 111.082,328.255C110.681,326.148 111.029,323.964 111.107,321.82C111.127,321.285 112.437,312.763 112.558,311.976C125.623,227.016 145.909,177.029 155.393,155.748C160.805,143.605 166.78,132.87 167.861,130.928C180.224,108.718 201.809,76.356 234.713,57.743C239.942,54.786 245.827,52.382 246.82,51.976C273.147,41.222 303.378,40.262 334.559,53.738C336.542,54.595 341.2,57.43 344.511,59.679C373.233,79.188 387.632,107.59 392.34,129.899C395.721,145.922 396.19,170.74 384.535,204.324C383.551,207.16 380.786,218.525 363.606,260.675C394.38,215.571 409.416,205.968 419.171,202.273C435.287,196.17 450.244,203.356 458.018,215.977C470.557,236.331 457.157,300.883 447.448,365.549C440.82,409.693 421.224,504.655 437.918,512.609C451.937,516.019 463.996,500.287 487.588,474.654C498.827,462.443 511.981,442.446 553.886,388.091C567.519,370.406 590.038,337.799 595.569,330.89C602.697,321.985 617.78,298.32 633.664,282.844C636.926,279.666 640.495,276.721 644.062,273.882C650.01,269.146 656.075,267.089 657.21,266.704C664.411,264.262 670.815,264.379 672.013,264.402C679.615,264.541 685.601,266.82 686.721,267.247C693.827,269.952 698.687,274.123 699.597,274.904C705.367,279.855 708.529,285.426 709.12,286.468C712.876,293.086 713.963,299.393 714.166,300.574C714.37,301.755 715.456,308.061 714.131,315.553C713.327,320.099 711.802,322.511 709.728,326.636C704.615,336.805 676.672,378.793 661.956,441.17C659.842,450.131 657.462,456.977 656.088,473.278C655.864,475.93 656.026,492.004 656.52,495.82C660.599,527.348 672.469,528.131 678.378,528.598C692.903,529.747 712.241,511.187 733.717,497.749C740.143,493.728 751.877,485.733 762.489,481.643C776.31,476.316 791.699,475.355 802.864,478.325C817.288,482.162 825.851,487.708 833.534,499.829C844.699,517.443 839.179,538.707 835.544,548.014C831.873,557.414 817.308,572.781 801.811,580.492C792.214,585.266 768.986,593.512 755.859,596.136C734.118,600.482 685.524,614.79 645.094,585.547C612.592,562.039 609.311,524.616 608.946,501.544C608.748,489.065 610.294,469.932 611.178,446.474C599.416,460.441 587.998,473.796 576.659,486.505C516.112,554.366 471.835,591.335 429.505,587.574C412.149,586.032 401.577,577.891 400.83,577.355C374.369,558.378 368.206,533.033 366.066,518.837C364.702,509.784 364.097,493.266 364.422,487.709C369.134,407.221 404.915,336.732 398.638,320.259Z"/>
        </g>
    </g>
</svg>
