<?xml version="1.0" encoding="UTF-8" standalone="no"?>
<!DOCTYPE svg PUBLIC "-//W3C//DTD SVG 1.1//EN" "http://www.w3.org/Graphics/SVG/1.1/DTD/svg11.dtd">
<svg width="100%" height="100%" viewBox="0 0 831 893" version="1.1" xmlns="http://www.w3.org/2000/svg" xmlns:xlink="http://www.w3.org/1999/xlink" xml:space="preserve" xmlns:serif="http://www.serif.com/" style="fill-rule:evenodd;clip-rule:evenodd;stroke-linejoin:round;stroke-miterlimit:2;">
    <g transform="matrix(1,0,0,1,-34.1901,-4.00768)">
        <g transform="matrix(2.07318,0,0,2.07318,-539.371,-224.747)">
            <path d="M337.663,420.745C340.783,413.856 345.262,403.846 350.538,391.72C352.812,386.495 361.504,366.517 378.266,326.122C399.384,275.227 413.823,237.537 416.396,209.799C416.746,206.024 417.783,197.662 415.89,187.86C414.401,180.154 412.406,175.798 410.441,172.25C408.066,167.962 405.727,165.911 403.415,164.236C400.05,161.799 396.628,161.138 396.307,161.024C394.931,160.533 391.289,159.066 384.319,159.071C383.11,159.072 376.018,158.195 364.2,161.386C362.875,161.744 341.197,165.934 319.864,185.757C319.582,186.019 316.221,189.178 313.699,191.836C304.764,201.252 285.103,225.542 288.097,262.33C288.149,262.966 288.17,263.177 288.188,263.814C288.208,264.505 288.215,265.58 287.339,266.835C287.13,267.135 285.705,269.148 283.084,268.505C281.443,268.102 280.57,266.854 280.434,266.632C279.955,265.846 279.755,265.279 279.561,264.422C274.626,242.604 277.323,224.288 278.02,220.025C281.537,198.522 290.378,181.759 296.132,172.328C296.291,172.068 298.784,168.047 302.506,163.049C314.806,146.536 330.429,132.635 347.346,122.959C347.426,122.913 353.018,119.768 360.521,116.822C368.223,113.798 374.628,112.253 379.069,111.404C379.342,111.352 385.932,110.195 394.233,110.355C400.609,110.479 405.505,111.308 408.403,111.893C408.432,111.899 411.648,112.636 415.666,114.078C430.145,119.275 438.381,127.444 440.678,129.733C448.835,137.86 453.417,146.459 455.909,151.935C457.5,155.429 458.826,159.561 459.043,160.237C465,178.794 463.96,195.861 463.876,197.721C463.512,205.839 462.344,212.64 461.631,216.409C460.984,219.828 459.752,224.51 459.568,225.209C456.094,238.41 450.809,252.434 443.717,268.27C449.57,266.066 456.295,264.775 463.666,265.587C463.682,265.588 465.886,265.864 468.66,266.647C476.587,268.887 481.054,272.816 481.319,273.033C493.288,282.807 495.115,298.853 495.387,311.758C495.413,313.009 495.519,315.233 495.114,322.11C494.46,333.22 493.257,343.216 491.05,364.287C489.632,377.82 485.069,415.052 492.231,429.163C492.593,429.876 493.332,431.131 493.998,431.67C494.288,431.905 495.338,432.533 497.013,432.542C499.345,432.556 507.344,431.521 524.643,414.244C532.823,406.074 540.866,396.606 546.2,390.167C546.789,389.456 563.51,367.274 566.937,362.001C575.105,349.429 582.675,337.659 586.455,331.506C589.46,326.614 594.356,318.42 598.122,312.226C598.565,311.499 603.004,304.199 603.687,303.158C604.766,301.517 605.993,300.572 606.232,300.389C610.267,297.281 614.555,298.158 615.283,298.307C620.371,299.348 622.554,303.24 622.924,303.9C623.902,305.644 624.184,307.305 624.237,307.615C624.375,308.433 624.56,310.833 624.563,310.992C625.208,341.163 625.545,368.652 625.545,368.652C625.735,377.159 628.579,394.271 637.506,403.497C641.261,407.379 643.213,407.219 650.359,407.358C650.488,407.361 654.069,407.339 656.333,407.58C660.413,408.014 662.277,408.497 665.678,409.863C666.265,410.099 670.092,411.907 672.965,414.796C673.806,415.642 677.268,420.056 677.361,428.095C677.375,429.321 677.457,436.424 671.556,442.282C670.916,442.918 668.727,446.06 662.942,447.274C660.385,447.81 654.683,447.579 654.671,447.578C652.575,447.439 649.401,446.887 648.083,446.659C637.134,444.769 609.066,440.977 599.991,401.382C596.866,387.752 596.985,374.131 596.922,371.296C596.911,370.815 596.841,370.332 596.878,369.853C597.489,362.077 598.122,354.303 598.761,346.53L582.849,367.939C577.232,375.45 567.322,389.704 560.333,399.676C555.942,405.942 539.534,430.965 524.012,444.8C517.368,450.723 503.917,461.194 487.319,457.247C469.975,453.122 460.732,439.33 458.912,429.223C456.604,416.399 456.899,389.011 457.612,375.451C458.366,361.101 461.533,323.049 455.502,318.827C447.656,313.334 437.207,326.63 429.907,335.366C424.446,341.901 410.983,357.645 383.388,398.634C373.66,413.084 361.625,432.488 359.781,435.462C346.777,456.43 334.525,477.22 334.424,477.395L315.543,510.279C312.565,515.454 309.647,521.033 301.395,535.444C301.225,535.741 301.07,536.046 300.886,536.335C300.603,536.782 300.329,537.238 299.996,537.649C299.608,538.127 297.325,540.938 293.09,541.045C292.474,541.061 288.855,541.152 286.023,538.002C285.611,537.545 283.191,534.853 283.746,530.655C283.815,530.132 283.93,529.612 284.088,529.108C284.246,528.604 284.459,528.117 284.691,527.642C284.825,527.367 287.26,522.808 287.484,522.388C288.929,519.682 288.752,519.591 306.723,484.67C310.442,477.109 314.121,469.617 315.309,467.201C317.298,463.157 326.413,443.718 337.663,420.745Z"/>
        </g>
    </g>
</svg>
